# xmcd
#
# Track frame offsets:
#	150
#	19251
#	29212
#	42147
#	55573
#	67220
#	82319
#	104557
#	122873
#	134309
#	146144
#	158010
#	175048
#	191315
#
# Disc length: 2792 seconds
#
# Revision: 1
# Processed by: cddbd v1.5.2PL0 Copyright (c) Steve Scherf et al.
# Submitted via: EasyCDDAExtractor 5.1.0
#
DISCID=cc0ae60e
DTITLE=Various Artist - Country Classics
DYEAR=1900
DGENRE=Country
TTITLE0=Jerry Reed - East bound and down
TTITLE1=Matchbox - Route 66
TTITLE2=Kenny Rogers - Ruby don't take your love to town
TTITLE3=B. J. Thomas - Raindrops keep falling on my head
TTITLE4=Carl Perkins - Lucille
TTITLE5=Billie Jo Spears - Blanket on the ground
TTITLE6=Kid Rock feat. Sheryl Crow - Picture
TTITLE7=Shania Twain - I'm gonna getcha good
TTITLE8=Blues Brothers - Rawhide
TTITLE9=Tina Turner - Stand by your man
TTITLE10=Lynn Anderson - Rose garden
TTITLE11=Johnny Cash - Hurt
TTITLE12=Wynonna - What the world needs
TTITLE13=Shania Twain - Thank you baby
EXTD=
EXTT0=
EXTT1=
EXTT2=
EXTT3=
EXTT4=
EXTT5=
EXTT6=
EXTT7=
EXTT8=
EXTT9=
EXTT10=
EXTT11=
EXTT12=
EXTT13=
PLAYORDER=
